<svg width="500" height="500" viewBox="0 0 500 500" fill="none" xmlns="http://www.w3.org/2000/svg">
<rect width="500" height="500" fill="#CBCBCB"/>
<rect x="132" y="235" width="235" height="30" fill="#969696"/>
<rect x="234.5" y="367.5" width="235" height="30" transform="rotate(-90 234.5 367.5)" fill="#969696"/>
<path d="M49.2642 411V396.455H52.3395V402.456H58.5824V396.455H61.6506V411H58.5824V404.991H52.3395V411H49.2642ZM67.2401 411.206C66.544 411.206 65.9238 411.085 65.3793 410.844C64.8348 410.598 64.4039 410.235 64.0866 409.757C63.7741 409.274 63.6179 408.673 63.6179 407.953C63.6179 407.347 63.7292 406.838 63.9517 406.426C64.1742 406.014 64.4773 405.683 64.8608 405.432C65.2443 405.181 65.6799 404.991 66.1676 404.864C66.66 404.736 67.1761 404.646 67.7159 404.594C68.3504 404.527 68.8617 404.466 69.25 404.409C69.6383 404.348 69.92 404.258 70.0952 404.139C70.2704 404.021 70.358 403.846 70.358 403.614V403.571C70.358 403.121 70.2159 402.773 69.9318 402.527C69.6525 402.281 69.2547 402.158 68.7386 402.158C68.1941 402.158 67.7609 402.278 67.4389 402.52C67.117 402.757 66.9039 403.055 66.7997 403.415L64.0014 403.188C64.1435 402.525 64.4228 401.952 64.8395 401.469C65.2562 400.981 65.7936 400.607 66.4517 400.347C67.1146 400.081 67.8816 399.949 68.7528 399.949C69.3589 399.949 69.9389 400.02 70.4929 400.162C71.0516 400.304 71.5464 400.524 71.9773 400.822C72.4129 401.121 72.7562 401.504 73.0071 401.973C73.258 402.437 73.3835 402.993 73.3835 403.642V411H70.5142V409.487H70.429C70.2538 409.828 70.0194 410.129 69.7259 410.389C69.4323 410.645 69.0795 410.846 68.6676 410.993C68.2557 411.135 67.7798 411.206 67.2401 411.206ZM68.1065 409.118C68.5516 409.118 68.9446 409.03 69.2855 408.855C69.6264 408.675 69.8939 408.434 70.0881 408.131C70.2822 407.828 70.3793 407.484 70.3793 407.101V405.943C70.2846 406.005 70.1544 406.062 69.9886 406.114C69.8277 406.161 69.6454 406.206 69.4418 406.249C69.2382 406.286 69.0346 406.322 68.831 406.355C68.6274 406.384 68.4427 406.41 68.277 406.433C67.9219 406.485 67.6117 406.568 67.3466 406.682C67.0814 406.795 66.8755 406.949 66.7287 407.143C66.5819 407.333 66.5085 407.57 66.5085 407.854C66.5085 408.266 66.6577 408.58 66.956 408.798C67.259 409.011 67.6425 409.118 68.1065 409.118ZM75.0206 411L78.8345 405.325L75.0419 400.091H78.4936L81.3274 404.359H81.7962V400.091H84.8217V404.359H85.2763L88.1101 400.091H91.5618L87.7763 405.325L91.5831 411H88.0533L85.2479 406.739H84.8217V411H81.7962V406.739H81.37L78.5504 411H75.0206ZM99.7383 407.655L102.693 400.091H104.994L100.74 411H98.7298L94.5749 400.091H96.869L99.7383 407.655ZM96.18 400.091V411H93.2894V400.091H96.18ZM103.446 411V400.091H106.301V411H103.446ZM111.532 407.009L115.459 400.091H118.442V411H115.559V404.061L111.645 411H108.641V400.091H111.532V407.009ZM119.772 402.47V400.091H129.658V402.47H126.143V411H123.259V402.47H119.772ZM136.074 411.213C134.951 411.213 133.985 410.986 133.176 410.531C132.371 410.072 131.751 409.423 131.315 408.585C130.879 407.742 130.662 406.746 130.662 405.595C130.662 404.473 130.879 403.488 131.315 402.641C131.751 401.793 132.364 401.133 133.154 400.659C133.95 400.186 134.883 399.949 135.953 399.949C136.672 399.949 137.342 400.065 137.963 400.297C138.588 400.524 139.132 400.867 139.596 401.327C140.065 401.786 140.43 402.364 140.69 403.06C140.95 403.751 141.081 404.561 141.081 405.489V406.32H131.869V404.445H138.233C138.233 404.009 138.138 403.623 137.949 403.287C137.759 402.951 137.496 402.688 137.16 402.499C136.829 402.304 136.443 402.207 136.002 402.207C135.543 402.207 135.136 402.314 134.781 402.527C134.431 402.735 134.156 403.017 133.957 403.372C133.758 403.723 133.656 404.113 133.652 404.544V406.327C133.652 406.866 133.751 407.333 133.95 407.726C134.154 408.119 134.44 408.422 134.809 408.635C135.179 408.848 135.617 408.955 136.123 408.955C136.459 408.955 136.767 408.907 137.047 408.812C137.326 408.718 137.565 408.576 137.764 408.386C137.963 408.197 138.114 407.965 138.218 407.69L141.017 407.875C140.875 408.547 140.583 409.134 140.143 409.636C139.708 410.134 139.144 410.522 138.453 410.801C137.766 411.076 136.973 411.213 136.074 411.213ZM157.151 400.091V411H154.282V400.091H157.151ZM155.752 404.878V407.264C155.52 407.368 155.231 407.468 154.886 407.562C154.54 407.652 154.178 407.726 153.799 407.783C153.42 407.839 153.065 407.868 152.734 407.868C151.166 407.868 149.933 407.546 149.033 406.902C148.134 406.253 147.684 405.219 147.684 403.798V400.077H150.539V403.798C150.539 404.22 150.61 404.554 150.752 404.8C150.899 405.046 151.131 405.223 151.448 405.332C151.77 405.437 152.199 405.489 152.734 405.489C153.231 405.489 153.719 405.437 154.197 405.332C154.675 405.228 155.193 405.077 155.752 404.878ZM158.405 402.47V400.091H168.291V402.47H164.776V411H161.892V402.47H158.405ZM174.664 411.213C173.56 411.213 172.606 410.979 171.801 410.51C171.001 410.036 170.383 409.378 169.948 408.536C169.512 407.688 169.294 406.705 169.294 405.588C169.294 404.461 169.512 403.476 169.948 402.634C170.383 401.786 171.001 401.128 171.801 400.659C172.606 400.186 173.56 399.949 174.664 399.949C175.767 399.949 176.719 400.186 177.519 400.659C178.324 401.128 178.944 401.786 179.38 402.634C179.815 403.476 180.033 404.461 180.033 405.588C180.033 406.705 179.815 407.688 179.38 408.536C178.944 409.378 178.324 410.036 177.519 410.51C176.719 410.979 175.767 411.213 174.664 411.213ZM174.678 408.869C175.18 408.869 175.599 408.727 175.935 408.443C176.271 408.154 176.525 407.761 176.695 407.264C176.87 406.767 176.958 406.201 176.958 405.567C176.958 404.932 176.87 404.366 176.695 403.869C176.525 403.372 176.271 402.979 175.935 402.69C175.599 402.402 175.18 402.257 174.678 402.257C174.171 402.257 173.745 402.402 173.4 402.69C173.059 402.979 172.801 403.372 172.625 403.869C172.455 404.366 172.37 404.932 172.37 405.567C172.37 406.201 172.455 406.767 172.625 407.264C172.801 407.761 173.059 408.154 173.4 408.443C173.745 408.727 174.171 408.869 174.678 408.869ZM191.07 396.085L191.993 398.06C191.685 398.315 191.345 398.505 190.971 398.628C190.596 398.746 190.149 398.824 189.628 398.862C189.112 398.9 188.482 398.926 187.739 398.94C186.896 398.95 186.21 399.085 185.679 399.345C185.149 399.606 184.747 400.015 184.472 400.574C184.197 401.128 184.017 401.852 183.932 402.747H184.039C184.365 402.08 184.825 401.563 185.417 401.199C186.013 400.834 186.749 400.652 187.625 400.652C188.553 400.652 189.365 400.856 190.061 401.263C190.762 401.67 191.307 402.255 191.695 403.017C192.083 403.779 192.277 404.693 192.277 405.759C192.277 406.866 192.06 407.83 191.624 408.649C191.193 409.464 190.58 410.096 189.784 410.545C188.989 410.991 188.042 411.213 186.944 411.213C185.84 411.213 184.889 410.981 184.088 410.517C183.293 410.053 182.677 409.369 182.242 408.464C181.811 407.56 181.596 406.447 181.596 405.126V404.232C181.596 401.604 182.107 399.655 183.13 398.386C184.152 397.117 185.656 396.473 187.64 396.455C188.179 396.445 188.667 396.443 189.103 396.447C189.538 396.452 189.919 396.431 190.246 396.384C190.578 396.336 190.852 396.237 191.07 396.085ZM186.958 408.869C187.422 408.869 187.819 408.749 188.151 408.507C188.487 408.266 188.745 407.92 188.925 407.47C189.11 407.02 189.202 406.483 189.202 405.858C189.202 405.238 189.11 404.712 188.925 404.281C188.745 403.846 188.487 403.514 188.151 403.287C187.815 403.06 187.412 402.946 186.944 402.946C186.593 402.946 186.278 403.01 185.999 403.138C185.72 403.266 185.48 403.455 185.282 403.706C185.087 403.952 184.936 404.258 184.827 404.622C184.723 404.982 184.671 405.394 184.671 405.858C184.671 406.791 184.872 407.527 185.275 408.067C185.682 408.602 186.243 408.869 186.958 408.869ZM196.182 403.443H199.442C200.886 403.443 202.013 403.789 202.822 404.48C203.632 405.167 204.037 406.085 204.037 407.236C204.037 407.984 203.855 408.642 203.49 409.21C203.125 409.774 202.6 410.214 201.913 410.531C201.227 410.844 200.403 411 199.442 411H194.286V400.091H197.176V408.621H199.442C199.948 408.621 200.365 408.493 200.692 408.237C201.018 407.982 201.184 407.655 201.189 407.257C201.184 406.836 201.018 406.492 200.692 406.227C200.365 405.957 199.948 405.822 199.442 405.822H196.182V403.443ZM205.209 411V400.091H208.234V411H205.209ZM214.429 414.196V408.599H215.267C215.509 408.448 215.703 408.206 215.85 407.875C216.001 407.544 216.124 407.153 216.219 406.703C216.319 406.253 216.394 405.768 216.446 405.247C216.503 404.722 216.553 404.191 216.596 403.656L216.88 400.091H225.246V408.599H226.936V414.196H224.053V411H217.384V414.196H214.429ZM218.279 408.599H222.391V402.42H219.451L219.337 403.656C219.257 404.821 219.141 405.811 218.989 406.625C218.837 407.435 218.601 408.093 218.279 408.599ZM233.629 411.213C232.525 411.213 231.571 410.979 230.766 410.51C229.966 410.036 229.348 409.378 228.913 408.536C228.477 407.688 228.259 406.705 228.259 405.588C228.259 404.461 228.477 403.476 228.913 402.634C229.348 401.786 229.966 401.128 230.766 400.659C231.571 400.186 232.525 399.949 233.629 399.949C234.732 399.949 235.683 400.186 236.484 400.659C237.289 401.128 237.909 401.786 238.344 402.634C238.78 403.476 238.998 404.461 238.998 405.588C238.998 406.705 238.78 407.688 238.344 408.536C237.909 409.378 237.289 410.036 236.484 410.51C235.683 410.979 234.732 411.213 233.629 411.213ZM233.643 408.869C234.145 408.869 234.564 408.727 234.9 408.443C235.236 408.154 235.489 407.761 235.66 407.264C235.835 406.767 235.923 406.201 235.923 405.567C235.923 404.932 235.835 404.366 235.66 403.869C235.489 403.372 235.236 402.979 234.9 402.69C234.564 402.402 234.145 402.257 233.643 402.257C233.136 402.257 232.71 402.402 232.364 402.69C232.023 402.979 231.765 403.372 231.59 403.869C231.42 404.366 231.335 404.932 231.335 405.567C231.335 406.201 231.42 406.767 231.59 407.264C231.765 407.761 232.023 408.154 232.364 408.443C232.71 408.727 233.136 408.869 233.643 408.869ZM250.035 396.085L250.958 398.06C250.65 398.315 250.309 398.505 249.935 398.628C249.561 398.746 249.114 398.824 248.593 398.862C248.077 398.9 247.447 398.926 246.704 398.94C245.861 398.95 245.174 399.085 244.644 399.345C244.114 399.606 243.711 400.015 243.437 400.574C243.162 401.128 242.982 401.852 242.897 402.747H243.004C243.33 402.08 243.79 401.563 244.381 401.199C244.978 400.834 245.714 400.652 246.59 400.652C247.518 400.652 248.33 400.856 249.026 401.263C249.727 401.67 250.272 402.255 250.66 403.017C251.048 403.779 251.242 404.693 251.242 405.759C251.242 406.866 251.024 407.83 250.589 408.649C250.158 409.464 249.545 410.096 248.749 410.545C247.954 410.991 247.007 411.213 245.908 411.213C244.805 411.213 243.853 410.981 243.053 410.517C242.258 410.053 241.642 409.369 241.207 408.464C240.776 407.56 240.56 406.447 240.56 405.126V404.232C240.56 401.604 241.072 399.655 242.094 398.386C243.117 397.117 244.621 396.473 246.604 396.455C247.144 396.445 247.632 396.443 248.067 396.447C248.503 396.452 248.884 396.431 249.211 396.384C249.542 396.336 249.817 396.237 250.035 396.085ZM245.923 408.869C246.387 408.869 246.784 408.749 247.116 408.507C247.452 408.266 247.71 407.92 247.89 407.47C248.075 407.02 248.167 406.483 248.167 405.858C248.167 405.238 248.075 404.712 247.89 404.281C247.71 403.846 247.452 403.514 247.116 403.287C246.78 403.06 246.377 402.946 245.908 402.946C245.558 402.946 245.243 403.01 244.964 403.138C244.684 403.266 244.445 403.455 244.246 403.706C244.052 403.952 243.901 404.258 243.792 404.622C243.688 404.982 243.636 405.394 243.636 405.858C243.636 406.791 243.837 407.527 244.239 408.067C244.647 408.602 245.208 408.869 245.923 408.869ZM256.361 411.206C255.665 411.206 255.045 411.085 254.5 410.844C253.956 410.598 253.525 410.235 253.208 409.757C252.895 409.274 252.739 408.673 252.739 407.953C252.739 407.347 252.85 406.838 253.073 406.426C253.295 406.014 253.598 405.683 253.982 405.432C254.365 405.181 254.801 404.991 255.289 404.864C255.781 404.736 256.297 404.646 256.837 404.594C257.471 404.527 257.983 404.466 258.371 404.409C258.759 404.348 259.041 404.258 259.216 404.139C259.391 404.021 259.479 403.846 259.479 403.614V403.571C259.479 403.121 259.337 402.773 259.053 402.527C258.774 402.281 258.376 402.158 257.86 402.158C257.315 402.158 256.882 402.278 256.56 402.52C256.238 402.757 256.025 403.055 255.921 403.415L253.123 403.188C253.265 402.525 253.544 401.952 253.961 401.469C254.377 400.981 254.915 400.607 255.573 400.347C256.236 400.081 257.003 399.949 257.874 399.949C258.48 399.949 259.06 400.02 259.614 400.162C260.173 400.304 260.667 400.524 261.098 400.822C261.534 401.121 261.877 401.504 262.128 401.973C262.379 402.437 262.505 402.993 262.505 403.642V411H259.635V409.487H259.55C259.375 409.828 259.141 410.129 258.847 410.389C258.553 410.645 258.201 410.846 257.789 410.993C257.377 411.135 256.901 411.206 256.361 411.206ZM257.228 409.118C257.673 409.118 258.066 409.03 258.407 408.855C258.748 408.675 259.015 408.434 259.209 408.131C259.403 407.828 259.5 407.484 259.5 407.101V405.943C259.406 406.005 259.275 406.062 259.11 406.114C258.949 406.161 258.766 406.206 258.563 406.249C258.359 406.286 258.156 406.322 257.952 406.355C257.748 406.384 257.564 406.41 257.398 406.433C257.043 406.485 256.733 406.568 256.468 406.682C256.203 406.795 255.997 406.949 255.85 407.143C255.703 407.333 255.63 407.57 255.63 407.854C255.63 408.266 255.779 408.58 256.077 408.798C256.38 409.011 256.764 409.118 257.228 409.118ZM264.852 411V400.091H269.504C270.849 400.091 271.912 400.347 272.693 400.858C273.474 401.369 273.865 402.096 273.865 403.038C273.865 403.63 273.645 404.123 273.204 404.516C272.764 404.909 272.153 405.174 271.372 405.311C272.025 405.358 272.582 405.508 273.041 405.759C273.505 406.005 273.858 406.324 274.099 406.717C274.345 407.11 274.468 407.546 274.468 408.024C274.468 408.644 274.303 409.177 273.971 409.622C273.645 410.067 273.164 410.408 272.529 410.645C271.9 410.882 271.13 411 270.221 411H264.852ZM267.672 408.734H270.221C270.643 408.734 270.972 408.635 271.208 408.436C271.45 408.232 271.571 407.955 271.571 407.605C271.571 407.217 271.45 406.911 271.208 406.689C270.972 406.466 270.643 406.355 270.221 406.355H267.672V408.734ZM267.672 404.58H269.568C269.871 404.58 270.129 404.537 270.342 404.452C270.56 404.362 270.725 404.234 270.839 404.068C270.958 403.902 271.017 403.706 271.017 403.479C271.017 403.143 270.882 402.88 270.612 402.69C270.342 402.501 269.973 402.406 269.504 402.406H267.672V404.58ZM279.266 407.009L283.194 400.091H286.176V411H283.293V404.061L279.38 411H276.375V400.091H279.266V407.009ZM287.506 402.47V400.091H297.393V402.47H293.877V411H290.994V402.47H287.506ZM301.123 403.443H304.383C305.827 403.443 306.954 403.789 307.764 404.48C308.574 405.167 308.978 406.085 308.978 407.236C308.978 407.984 308.796 408.642 308.431 409.21C308.067 409.774 307.541 410.214 306.855 410.531C306.168 410.844 305.344 411 304.383 411H299.227V400.091H302.118V408.621H304.383C304.89 408.621 305.306 408.493 305.633 408.237C305.96 407.982 306.126 407.655 306.13 407.257C306.126 406.836 305.96 406.492 305.633 406.227C305.306 405.957 304.89 405.822 304.383 405.822H301.123V403.443ZM318.504 407.009L322.432 400.091H325.415V411H322.531V404.061L318.618 411H315.614V400.091H318.504V407.009ZM327.279 407.911H330.212C330.227 408.27 330.388 408.554 330.695 408.763C331.003 408.971 331.401 409.075 331.888 409.075C332.381 409.075 332.795 408.962 333.131 408.734C333.468 408.502 333.636 408.171 333.636 407.74C333.636 407.475 333.569 407.245 333.437 407.051C333.304 406.852 333.12 406.696 332.883 406.582C332.646 406.469 332.371 406.412 332.059 406.412H330.489V404.43H332.059C332.528 404.43 332.888 404.321 333.138 404.104C333.394 403.886 333.522 403.614 333.522 403.287C333.522 402.918 333.389 402.622 333.124 402.399C332.864 402.172 332.511 402.058 332.066 402.058C331.616 402.058 331.242 402.16 330.944 402.364C330.65 402.562 330.499 402.823 330.489 403.145H327.57C327.58 402.491 327.776 401.926 328.16 401.447C328.548 400.969 329.069 400.6 329.722 400.339C330.38 400.079 331.117 399.949 331.931 399.949C332.821 399.949 333.588 400.074 334.232 400.325C334.881 400.571 335.378 400.924 335.724 401.384C336.074 401.843 336.249 402.39 336.249 403.024C336.249 403.602 336.06 404.085 335.681 404.473C335.302 404.861 334.772 405.138 334.09 405.304V405.418C334.54 405.446 334.947 405.567 335.312 405.78C335.676 405.993 335.968 406.286 336.185 406.661C336.403 407.03 336.512 407.468 336.512 407.974C336.512 408.652 336.313 409.232 335.915 409.714C335.522 410.197 334.978 410.569 334.282 410.83C333.591 411.085 332.798 411.213 331.903 411.213C331.031 411.213 330.25 411.088 329.559 410.837C328.872 410.581 328.326 410.207 327.918 409.714C327.516 409.222 327.303 408.621 327.279 407.911ZM343.297 411.213C342.193 411.213 341.239 410.979 340.434 410.51C339.634 410.036 339.016 409.378 338.581 408.536C338.145 407.688 337.927 406.705 337.927 405.588C337.927 404.461 338.145 403.476 338.581 402.634C339.016 401.786 339.634 401.128 340.434 400.659C341.239 400.186 342.193 399.949 343.297 399.949C344.4 399.949 345.351 400.186 346.152 400.659C346.957 401.128 347.577 401.786 348.012 402.634C348.448 403.476 348.666 404.461 348.666 405.588C348.666 406.705 348.448 407.688 348.012 408.536C347.577 409.378 346.957 410.036 346.152 410.51C345.351 410.979 344.4 411.213 343.297 411.213ZM343.311 408.869C343.813 408.869 344.232 408.727 344.568 408.443C344.904 408.154 345.157 407.761 345.328 407.264C345.503 406.767 345.591 406.201 345.591 405.567C345.591 404.932 345.503 404.366 345.328 403.869C345.157 403.372 344.904 402.979 344.568 402.69C344.232 402.402 343.813 402.257 343.311 402.257C342.804 402.257 342.378 402.402 342.032 402.69C341.691 402.979 341.433 403.372 341.258 403.869C341.088 404.366 341.002 404.932 341.002 405.567C341.002 406.201 341.088 406.767 341.258 407.264C341.433 407.761 341.691 408.154 342.032 408.443C342.378 408.727 342.804 408.869 343.311 408.869ZM359.703 396.085L360.626 398.06C360.318 398.315 359.977 398.505 359.603 398.628C359.229 398.746 358.782 398.824 358.261 398.862C357.745 398.9 357.115 398.926 356.372 398.94C355.529 398.95 354.842 399.085 354.312 399.345C353.782 399.606 353.379 400.015 353.105 400.574C352.83 401.128 352.65 401.852 352.565 402.747H352.672C352.998 402.08 353.458 401.563 354.049 401.199C354.646 400.834 355.382 400.652 356.258 400.652C357.186 400.652 357.998 400.856 358.694 401.263C359.395 401.67 359.94 402.255 360.328 403.017C360.716 403.779 360.91 404.693 360.91 405.759C360.91 406.866 360.692 407.83 360.257 408.649C359.826 409.464 359.213 410.096 358.417 410.545C357.622 410.991 356.675 411.213 355.576 411.213C354.473 411.213 353.521 410.981 352.721 410.517C351.926 410.053 351.31 409.369 350.875 408.464C350.444 407.56 350.228 406.447 350.228 405.126V404.232C350.228 401.604 350.74 399.655 351.762 398.386C352.785 397.117 354.288 396.473 356.272 396.455C356.812 396.445 357.3 396.443 357.735 396.447C358.171 396.452 358.552 396.431 358.879 396.384C359.21 396.336 359.485 396.237 359.703 396.085ZM355.591 408.869C356.055 408.869 356.452 408.749 356.784 408.507C357.12 408.266 357.378 407.92 357.558 407.47C357.743 407.02 357.835 406.483 357.835 405.858C357.835 405.238 357.743 404.712 357.558 404.281C357.378 403.846 357.12 403.514 356.784 403.287C356.448 403.06 356.045 402.946 355.576 402.946C355.226 402.946 354.911 403.01 354.632 403.138C354.352 403.266 354.113 403.455 353.914 403.706C353.72 403.952 353.569 404.258 353.46 404.622C353.356 404.982 353.304 405.394 353.304 405.858C353.304 406.791 353.505 407.527 353.907 408.067C354.315 408.602 354.876 408.869 355.591 408.869ZM362.918 415.091V400.091H365.901V401.923H366.036C366.169 401.63 366.361 401.331 366.612 401.028C366.867 400.721 367.199 400.465 367.606 400.261C368.018 400.053 368.529 399.949 369.14 399.949C369.935 399.949 370.669 400.157 371.342 400.574C372.014 400.986 372.551 401.608 372.954 402.442C373.356 403.27 373.558 404.31 373.558 405.56C373.558 406.777 373.361 407.804 372.968 408.642C372.58 409.475 372.049 410.107 371.377 410.538C370.71 410.964 369.961 411.178 369.133 411.178C368.546 411.178 368.046 411.08 367.634 410.886C367.227 410.692 366.893 410.448 366.633 410.155C366.372 409.857 366.174 409.556 366.036 409.253H365.944V415.091H362.918ZM365.88 405.545C365.88 406.194 365.97 406.76 366.15 407.243C366.33 407.726 366.59 408.102 366.931 408.372C367.272 408.637 367.686 408.77 368.174 408.77C368.666 408.77 369.083 408.635 369.424 408.365C369.765 408.09 370.023 407.712 370.198 407.229C370.378 406.741 370.468 406.18 370.468 405.545C370.468 404.916 370.38 404.362 370.205 403.884C370.03 403.405 369.772 403.031 369.431 402.761C369.09 402.491 368.671 402.357 368.174 402.357C367.682 402.357 367.265 402.487 366.924 402.747C366.588 403.008 366.33 403.377 366.15 403.855C365.97 404.333 365.88 404.897 365.88 405.545ZM378.685 411.206C377.989 411.206 377.369 411.085 376.825 410.844C376.28 410.598 375.849 410.235 375.532 409.757C375.219 409.274 375.063 408.673 375.063 407.953C375.063 407.347 375.174 406.838 375.397 406.426C375.62 406.014 375.923 405.683 376.306 405.432C376.69 405.181 377.125 404.991 377.613 404.864C378.105 404.736 378.621 404.646 379.161 404.594C379.796 404.527 380.307 404.466 380.695 404.409C381.084 404.348 381.365 404.258 381.54 404.139C381.716 404.021 381.803 403.846 381.803 403.614V403.571C381.803 403.121 381.661 402.773 381.377 402.527C381.098 402.281 380.7 402.158 380.184 402.158C379.639 402.158 379.206 402.278 378.884 402.52C378.562 402.757 378.349 403.055 378.245 403.415L375.447 403.188C375.589 402.525 375.868 401.952 376.285 401.469C376.701 400.981 377.239 400.607 377.897 400.347C378.56 400.081 379.327 399.949 380.198 399.949C380.804 399.949 381.384 400.02 381.938 400.162C382.497 400.304 382.992 400.524 383.423 400.822C383.858 401.121 384.201 401.504 384.452 401.973C384.703 402.437 384.829 402.993 384.829 403.642V411H381.96V409.487H381.874C381.699 409.828 381.465 410.129 381.171 410.389C380.878 410.645 380.525 410.846 380.113 410.993C379.701 411.135 379.225 411.206 378.685 411.206ZM379.552 409.118C379.997 409.118 380.39 409.03 380.731 408.855C381.072 408.675 381.339 408.434 381.533 408.131C381.728 407.828 381.825 407.484 381.825 407.101V405.943C381.73 406.005 381.6 406.062 381.434 406.114C381.273 406.161 381.091 406.206 380.887 406.249C380.683 406.286 380.48 406.322 380.276 406.355C380.073 406.384 379.888 406.41 379.722 406.433C379.367 406.485 379.057 406.568 378.792 406.682C378.527 406.795 378.321 406.949 378.174 407.143C378.027 407.333 377.954 407.57 377.954 407.854C377.954 408.266 378.103 408.58 378.401 408.798C378.704 409.011 379.088 409.118 379.552 409.118ZM386.466 411L390.28 405.325L386.487 400.091H389.939L392.773 404.359H393.241V400.091H396.267V404.359H396.722L399.555 400.091H403.007L399.222 405.325L403.028 411H399.499L396.693 406.739H396.267V411H393.241V406.739H392.815L389.996 411H386.466ZM409.316 411.213C408.194 411.213 407.228 410.986 406.418 410.531C405.613 410.072 404.993 409.423 404.557 408.585C404.122 407.742 403.904 406.746 403.904 405.595C403.904 404.473 404.122 403.488 404.557 402.641C404.993 401.793 405.606 401.133 406.397 400.659C407.192 400.186 408.125 399.949 409.195 399.949C409.915 399.949 410.585 400.065 411.205 400.297C411.83 400.524 412.374 400.867 412.838 401.327C413.307 401.786 413.672 402.364 413.932 403.06C414.193 403.751 414.323 404.561 414.323 405.489V406.32H405.111V404.445H411.475C411.475 404.009 411.38 403.623 411.191 403.287C411.001 402.951 410.739 402.688 410.402 402.499C410.071 402.304 409.685 402.207 409.245 402.207C408.785 402.207 408.378 402.314 408.023 402.527C407.673 402.735 407.398 403.017 407.199 403.372C407 403.723 406.899 404.113 406.894 404.544V406.327C406.894 406.866 406.993 407.333 407.192 407.726C407.396 408.119 407.682 408.422 408.051 408.635C408.421 408.848 408.859 408.955 409.365 408.955C409.702 408.955 410.009 408.907 410.289 408.812C410.568 408.718 410.807 408.576 411.006 408.386C411.205 408.197 411.356 407.965 411.461 407.69L414.259 407.875C414.117 408.547 413.826 409.134 413.385 409.636C412.95 410.134 412.386 410.522 411.695 410.801C411.008 411.076 410.215 411.213 409.316 411.213ZM423.89 404.338V406.717H418.194V404.338H423.89ZM419.188 400.091V411H416.297V400.091H419.188ZM425.786 400.091V411H422.917V400.091H425.786ZM431.024 407.009L434.951 400.091H437.934V411H435.051V404.061L431.137 411H428.133V400.091H431.024V407.009ZM445.331 411.213C444.209 411.213 443.243 410.986 442.434 410.531C441.629 410.072 441.008 409.423 440.573 408.585C440.137 407.742 439.919 406.746 439.919 405.595C439.919 404.473 440.137 403.488 440.573 402.641C441.008 401.793 441.622 401.133 442.412 400.659C443.208 400.186 444.141 399.949 445.211 399.949C445.93 399.949 446.6 400.065 447.221 400.297C447.846 400.524 448.39 400.867 448.854 401.327C449.323 401.786 449.687 402.364 449.948 403.06C450.208 403.751 450.338 404.561 450.338 405.489V406.32H441.127V404.445H447.49C447.49 404.009 447.396 403.623 447.206 403.287C447.017 402.951 446.754 402.688 446.418 402.499C446.087 402.304 445.701 402.207 445.26 402.207C444.801 402.207 444.394 402.314 444.039 402.527C443.688 402.735 443.414 403.017 443.215 403.372C443.016 403.723 442.914 404.113 442.909 404.544V406.327C442.909 406.866 443.009 407.333 443.208 407.726C443.411 408.119 443.698 408.422 444.067 408.635C444.436 408.848 444.874 408.955 445.381 408.955C445.717 408.955 446.025 408.907 446.304 408.812C446.584 408.718 446.823 408.576 447.022 408.386C447.221 408.197 447.372 407.965 447.476 407.69L450.275 407.875C450.132 408.547 449.841 409.134 449.401 409.636C448.965 410.134 448.402 410.522 447.711 410.801C447.024 411.076 446.231 411.213 445.331 411.213Z" fill="#969696"/>
</svg>
