<svg width="500" height="500" viewBox="0 0 500 500" fill="none" xmlns="http://www.w3.org/2000/svg">
<rect width="500" height="500" fill="#CBCBCB"/>
<rect x="132" y="235" width="235" height="30" fill="#969696"/>
<rect x="234.5" y="367.5" width="235" height="30" transform="rotate(-90 234.5 367.5)" fill="#969696"/>
<path d="M80.2642 411V396.455H83.3395V402.456H89.5824V396.455H92.6506V411H89.5824V404.991H83.3395V411H80.2642ZM98.2401 411.206C97.544 411.206 96.9238 411.085 96.3793 410.844C95.8348 410.598 95.4039 410.235 95.0866 409.757C94.7741 409.274 94.6179 408.673 94.6179 407.953C94.6179 407.347 94.7292 406.838 94.9517 406.426C95.1742 406.014 95.4773 405.683 95.8608 405.432C96.2443 405.181 96.6799 404.991 97.1676 404.864C97.66 404.736 98.1761 404.646 98.7159 404.594C99.3504 404.527 99.8617 404.466 100.25 404.409C100.638 404.348 100.92 404.258 101.095 404.139C101.27 404.021 101.358 403.846 101.358 403.614V403.571C101.358 403.121 101.216 402.773 100.932 402.527C100.652 402.281 100.255 402.158 99.7386 402.158C99.1941 402.158 98.7609 402.278 98.4389 402.52C98.117 402.757 97.9039 403.055 97.7997 403.415L95.0014 403.188C95.1435 402.525 95.4228 401.952 95.8395 401.469C96.2562 400.981 96.7936 400.607 97.4517 400.347C98.1146 400.081 98.8816 399.949 99.7528 399.949C100.359 399.949 100.939 400.02 101.493 400.162C102.052 400.304 102.546 400.524 102.977 400.822C103.413 401.121 103.756 401.504 104.007 401.973C104.258 402.437 104.384 402.993 104.384 403.642V411H101.514V409.487H101.429C101.254 409.828 101.019 410.129 100.726 410.389C100.432 410.645 100.08 410.846 99.6676 410.993C99.2557 411.135 98.7798 411.206 98.2401 411.206ZM99.1065 409.118C99.5516 409.118 99.9446 409.03 100.286 408.855C100.626 408.675 100.894 408.434 101.088 408.131C101.282 407.828 101.379 407.484 101.379 407.101V405.943C101.285 406.005 101.154 406.062 100.989 406.114C100.828 406.161 100.645 406.206 100.442 406.249C100.238 406.286 100.035 406.322 99.831 406.355C99.6274 406.384 99.4427 406.41 99.277 406.433C98.9219 406.485 98.6117 406.568 98.3466 406.682C98.0814 406.795 97.8755 406.949 97.7287 407.143C97.5819 407.333 97.5085 407.57 97.5085 407.854C97.5085 408.266 97.6577 408.58 97.956 408.798C98.259 409.011 98.6425 409.118 99.1065 409.118ZM106.021 411L109.835 405.325L106.042 400.091H109.494L112.327 404.359H112.796V400.091H115.822V404.359H116.276L119.11 400.091H122.562L118.776 405.325L122.583 411H119.053L116.248 406.739H115.822V411H112.796V406.739H112.37L109.55 411H106.021ZM130.738 407.655L133.693 400.091H135.994L131.74 411H129.73L125.575 400.091H127.869L130.738 407.655ZM127.18 400.091V411H124.289V400.091H127.18ZM134.446 411V400.091H137.301V411H134.446ZM142.532 407.009L146.459 400.091H149.442V411H146.559V404.061L142.645 411H139.641V400.091H142.532V407.009ZM150.772 402.47V400.091H160.658V402.47H157.143V411H154.259V402.47H150.772ZM167.074 411.213C165.951 411.213 164.985 410.986 164.176 410.531C163.371 410.072 162.751 409.423 162.315 408.585C161.879 407.742 161.662 406.746 161.662 405.595C161.662 404.473 161.879 403.488 162.315 402.641C162.751 401.793 163.364 401.133 164.154 400.659C164.95 400.186 165.883 399.949 166.953 399.949C167.672 399.949 168.342 400.065 168.963 400.297C169.588 400.524 170.132 400.867 170.596 401.327C171.065 401.786 171.43 402.364 171.69 403.06C171.95 403.751 172.081 404.561 172.081 405.489V406.32H162.869V404.445H169.233C169.233 404.009 169.138 403.623 168.949 403.287C168.759 402.951 168.496 402.688 168.16 402.499C167.829 402.304 167.443 402.207 167.002 402.207C166.543 402.207 166.136 402.314 165.781 402.527C165.431 402.735 165.156 403.017 164.957 403.372C164.758 403.723 164.656 404.113 164.652 404.544V406.327C164.652 406.866 164.751 407.333 164.95 407.726C165.154 408.119 165.44 408.422 165.809 408.635C166.179 408.848 166.617 408.955 167.123 408.955C167.459 408.955 167.767 408.907 168.047 408.812C168.326 408.718 168.565 408.576 168.764 408.386C168.963 408.197 169.114 407.965 169.218 407.69L172.017 407.875C171.875 408.547 171.583 409.134 171.143 409.636C170.708 410.134 170.144 410.522 169.453 410.801C168.766 411.076 167.973 411.213 167.074 411.213ZM188.151 400.091V411H185.282V400.091H188.151ZM186.752 404.878V407.264C186.52 407.368 186.231 407.468 185.886 407.562C185.54 407.652 185.178 407.726 184.799 407.783C184.42 407.839 184.065 407.868 183.734 407.868C182.166 407.868 180.933 407.546 180.033 406.902C179.134 406.253 178.684 405.219 178.684 403.798V400.077H181.539V403.798C181.539 404.22 181.61 404.554 181.752 404.8C181.899 405.046 182.131 405.223 182.448 405.332C182.77 405.437 183.199 405.489 183.734 405.489C184.231 405.489 184.719 405.437 185.197 405.332C185.675 405.228 186.193 405.077 186.752 404.878ZM189.405 402.47V400.091H199.291V402.47H195.776V411H192.892V402.47H189.405ZM205.664 411.213C204.56 411.213 203.606 410.979 202.801 410.51C202.001 410.036 201.383 409.378 200.948 408.536C200.512 407.688 200.294 406.705 200.294 405.588C200.294 404.461 200.512 403.476 200.948 402.634C201.383 401.786 202.001 401.128 202.801 400.659C203.606 400.186 204.56 399.949 205.664 399.949C206.767 399.949 207.719 400.186 208.519 400.659C209.324 401.128 209.944 401.786 210.38 402.634C210.815 403.476 211.033 404.461 211.033 405.588C211.033 406.705 210.815 407.688 210.38 408.536C209.944 409.378 209.324 410.036 208.519 410.51C207.719 410.979 206.767 411.213 205.664 411.213ZM205.678 408.869C206.18 408.869 206.599 408.727 206.935 408.443C207.271 408.154 207.525 407.761 207.695 407.264C207.87 406.767 207.958 406.201 207.958 405.567C207.958 404.932 207.87 404.366 207.695 403.869C207.525 403.372 207.271 402.979 206.935 402.69C206.599 402.402 206.18 402.257 205.678 402.257C205.171 402.257 204.745 402.402 204.4 402.69C204.059 402.979 203.801 403.372 203.625 403.869C203.455 404.366 203.37 404.932 203.37 405.567C203.37 406.201 203.455 406.767 203.625 407.264C203.801 407.761 204.059 408.154 204.4 408.443C204.745 408.727 205.171 408.869 205.678 408.869ZM222.07 396.085L222.993 398.06C222.685 398.315 222.345 398.505 221.971 398.628C221.596 398.746 221.149 398.824 220.628 398.862C220.112 398.9 219.482 398.926 218.739 398.94C217.896 398.95 217.21 399.085 216.679 399.345C216.149 399.606 215.747 400.015 215.472 400.574C215.197 401.128 215.017 401.852 214.932 402.747H215.039C215.365 402.08 215.825 401.563 216.417 401.199C217.013 400.834 217.749 400.652 218.625 400.652C219.553 400.652 220.365 400.856 221.061 401.263C221.762 401.67 222.307 402.255 222.695 403.017C223.083 403.779 223.277 404.693 223.277 405.759C223.277 406.866 223.06 407.83 222.624 408.649C222.193 409.464 221.58 410.096 220.784 410.545C219.989 410.991 219.042 411.213 217.944 411.213C216.84 411.213 215.889 410.981 215.088 410.517C214.293 410.053 213.677 409.369 213.242 408.464C212.811 407.56 212.596 406.447 212.596 405.126V404.232C212.596 401.604 213.107 399.655 214.13 398.386C215.152 397.117 216.656 396.473 218.64 396.455C219.179 396.445 219.667 396.443 220.103 396.447C220.538 396.452 220.919 396.431 221.246 396.384C221.578 396.336 221.852 396.237 222.07 396.085ZM217.958 408.869C218.422 408.869 218.819 408.749 219.151 408.507C219.487 408.266 219.745 407.92 219.925 407.47C220.11 407.02 220.202 406.483 220.202 405.858C220.202 405.238 220.11 404.712 219.925 404.281C219.745 403.846 219.487 403.514 219.151 403.287C218.815 403.06 218.412 402.946 217.944 402.946C217.593 402.946 217.278 403.01 216.999 403.138C216.72 403.266 216.48 403.455 216.282 403.706C216.087 403.952 215.936 404.258 215.827 404.622C215.723 404.982 215.671 405.394 215.671 405.858C215.671 406.791 215.872 407.527 216.275 408.067C216.682 408.602 217.243 408.869 217.958 408.869ZM227.182 403.443H230.442C231.886 403.443 233.013 403.789 233.822 404.48C234.632 405.167 235.037 406.085 235.037 407.236C235.037 407.984 234.855 408.642 234.49 409.21C234.125 409.774 233.6 410.214 232.913 410.531C232.227 410.844 231.403 411 230.442 411H225.286V400.091H228.176V408.621H230.442C230.948 408.621 231.365 408.493 231.692 408.237C232.018 407.982 232.184 407.655 232.189 407.257C232.184 406.836 232.018 406.492 231.692 406.227C231.365 405.957 230.948 405.822 230.442 405.822H227.182V403.443ZM236.209 411V400.091H239.234V411H236.209ZM245.429 414.196V408.599H246.267C246.509 408.448 246.703 408.206 246.85 407.875C247.001 407.544 247.124 407.153 247.219 406.703C247.319 406.253 247.394 405.768 247.446 405.247C247.503 404.722 247.553 404.191 247.596 403.656L247.88 400.091H256.246V408.599H257.936V414.196H255.053V411H248.384V414.196H245.429ZM249.279 408.599H253.391V402.42H250.451L250.337 403.656C250.257 404.821 250.141 405.811 249.989 406.625C249.837 407.435 249.601 408.093 249.279 408.599ZM264.629 411.213C263.525 411.213 262.571 410.979 261.766 410.51C260.966 410.036 260.348 409.378 259.913 408.536C259.477 407.688 259.259 406.705 259.259 405.588C259.259 404.461 259.477 403.476 259.913 402.634C260.348 401.786 260.966 401.128 261.766 400.659C262.571 400.186 263.525 399.949 264.629 399.949C265.732 399.949 266.683 400.186 267.484 400.659C268.289 401.128 268.909 401.786 269.344 402.634C269.78 403.476 269.998 404.461 269.998 405.588C269.998 406.705 269.78 407.688 269.344 408.536C268.909 409.378 268.289 410.036 267.484 410.51C266.683 410.979 265.732 411.213 264.629 411.213ZM264.643 408.869C265.145 408.869 265.564 408.727 265.9 408.443C266.236 408.154 266.489 407.761 266.66 407.264C266.835 406.767 266.923 406.201 266.923 405.567C266.923 404.932 266.835 404.366 266.66 403.869C266.489 403.372 266.236 402.979 265.9 402.69C265.564 402.402 265.145 402.257 264.643 402.257C264.136 402.257 263.71 402.402 263.364 402.69C263.023 402.979 262.765 403.372 262.59 403.869C262.42 404.366 262.335 404.932 262.335 405.567C262.335 406.201 262.42 406.767 262.59 407.264C262.765 407.761 263.023 408.154 263.364 408.443C263.71 408.727 264.136 408.869 264.643 408.869ZM281.035 396.085L281.958 398.06C281.65 398.315 281.309 398.505 280.935 398.628C280.561 398.746 280.114 398.824 279.593 398.862C279.077 398.9 278.447 398.926 277.704 398.94C276.861 398.95 276.174 399.085 275.644 399.345C275.114 399.606 274.711 400.015 274.437 400.574C274.162 401.128 273.982 401.852 273.897 402.747H274.004C274.33 402.08 274.79 401.563 275.381 401.199C275.978 400.834 276.714 400.652 277.59 400.652C278.518 400.652 279.33 400.856 280.026 401.263C280.727 401.67 281.272 402.255 281.66 403.017C282.048 403.779 282.242 404.693 282.242 405.759C282.242 406.866 282.024 407.83 281.589 408.649C281.158 409.464 280.545 410.096 279.749 410.545C278.954 410.991 278.007 411.213 276.908 411.213C275.805 411.213 274.853 410.981 274.053 410.517C273.258 410.053 272.642 409.369 272.207 408.464C271.776 407.56 271.56 406.447 271.56 405.126V404.232C271.56 401.604 272.072 399.655 273.094 398.386C274.117 397.117 275.621 396.473 277.604 396.455C278.144 396.445 278.632 396.443 279.067 396.447C279.503 396.452 279.884 396.431 280.211 396.384C280.542 396.336 280.817 396.237 281.035 396.085ZM276.923 408.869C277.387 408.869 277.784 408.749 278.116 408.507C278.452 408.266 278.71 407.92 278.89 407.47C279.075 407.02 279.167 406.483 279.167 405.858C279.167 405.238 279.075 404.712 278.89 404.281C278.71 403.846 278.452 403.514 278.116 403.287C277.78 403.06 277.377 402.946 276.908 402.946C276.558 402.946 276.243 403.01 275.964 403.138C275.684 403.266 275.445 403.455 275.246 403.706C275.052 403.952 274.901 404.258 274.792 404.622C274.688 404.982 274.636 405.394 274.636 405.858C274.636 406.791 274.837 407.527 275.239 408.067C275.647 408.602 276.208 408.869 276.923 408.869ZM287.361 411.206C286.665 411.206 286.045 411.085 285.5 410.844C284.956 410.598 284.525 410.235 284.208 409.757C283.895 409.274 283.739 408.673 283.739 407.953C283.739 407.347 283.85 406.838 284.073 406.426C284.295 406.014 284.598 405.683 284.982 405.432C285.365 405.181 285.801 404.991 286.289 404.864C286.781 404.736 287.297 404.646 287.837 404.594C288.471 404.527 288.983 404.466 289.371 404.409C289.759 404.348 290.041 404.258 290.216 404.139C290.391 404.021 290.479 403.846 290.479 403.614V403.571C290.479 403.121 290.337 402.773 290.053 402.527C289.774 402.281 289.376 402.158 288.86 402.158C288.315 402.158 287.882 402.278 287.56 402.52C287.238 402.757 287.025 403.055 286.921 403.415L284.123 403.188C284.265 402.525 284.544 401.952 284.961 401.469C285.377 400.981 285.915 400.607 286.573 400.347C287.236 400.081 288.003 399.949 288.874 399.949C289.48 399.949 290.06 400.02 290.614 400.162C291.173 400.304 291.667 400.524 292.098 400.822C292.534 401.121 292.877 401.504 293.128 401.973C293.379 402.437 293.505 402.993 293.505 403.642V411H290.635V409.487H290.55C290.375 409.828 290.141 410.129 289.847 410.389C289.553 410.645 289.201 410.846 288.789 410.993C288.377 411.135 287.901 411.206 287.361 411.206ZM288.228 409.118C288.673 409.118 289.066 409.03 289.407 408.855C289.748 408.675 290.015 408.434 290.209 408.131C290.403 407.828 290.5 407.484 290.5 407.101V405.943C290.406 406.005 290.275 406.062 290.11 406.114C289.949 406.161 289.766 406.206 289.563 406.249C289.359 406.286 289.156 406.322 288.952 406.355C288.748 406.384 288.564 406.41 288.398 406.433C288.043 406.485 287.733 406.568 287.468 406.682C287.203 406.795 286.997 406.949 286.85 407.143C286.703 407.333 286.63 407.57 286.63 407.854C286.63 408.266 286.779 408.58 287.077 408.798C287.38 409.011 287.764 409.118 288.228 409.118ZM295.852 411V400.091H300.504C301.849 400.091 302.912 400.347 303.693 400.858C304.474 401.369 304.865 402.096 304.865 403.038C304.865 403.63 304.645 404.123 304.204 404.516C303.764 404.909 303.153 405.174 302.372 405.311C303.025 405.358 303.582 405.508 304.041 405.759C304.505 406.005 304.858 406.324 305.099 406.717C305.345 407.11 305.468 407.546 305.468 408.024C305.468 408.644 305.303 409.177 304.971 409.622C304.645 410.067 304.164 410.408 303.529 410.645C302.9 410.882 302.13 411 301.221 411H295.852ZM298.672 408.734H301.221C301.643 408.734 301.972 408.635 302.208 408.436C302.45 408.232 302.571 407.955 302.571 407.605C302.571 407.217 302.45 406.911 302.208 406.689C301.972 406.466 301.643 406.355 301.221 406.355H298.672V408.734ZM298.672 404.58H300.568C300.871 404.58 301.129 404.537 301.342 404.452C301.56 404.362 301.725 404.234 301.839 404.068C301.958 403.902 302.017 403.706 302.017 403.479C302.017 403.143 301.882 402.88 301.612 402.69C301.342 402.501 300.973 402.406 300.504 402.406H298.672V404.58ZM310.266 407.009L314.194 400.091H317.176V411H314.293V404.061L310.38 411H307.375V400.091H310.266V407.009ZM318.506 402.47V400.091H328.393V402.47H324.877V411H321.994V402.47H318.506ZM332.123 403.443H335.383C336.827 403.443 337.954 403.789 338.764 404.48C339.574 405.167 339.978 406.085 339.978 407.236C339.978 407.984 339.796 408.642 339.431 409.21C339.067 409.774 338.541 410.214 337.855 410.531C337.168 410.844 336.344 411 335.383 411H330.227V400.091H333.118V408.621H335.383C335.89 408.621 336.306 408.493 336.633 408.237C336.96 407.982 337.126 407.655 337.13 407.257C337.126 406.836 336.96 406.492 336.633 406.227C336.306 405.957 335.89 405.822 335.383 405.822H332.123V403.443ZM349.724 411.206C349.028 411.206 348.408 411.085 347.864 410.844C347.319 410.598 346.888 410.235 346.571 409.757C346.259 409.274 346.102 408.673 346.102 407.953C346.102 407.347 346.214 406.838 346.436 406.426C346.659 406.014 346.962 405.683 347.345 405.432C347.729 405.181 348.164 404.991 348.652 404.864C349.144 404.736 349.661 404.646 350.2 404.594C350.835 404.527 351.346 404.466 351.734 404.409C352.123 404.348 352.404 404.258 352.58 404.139C352.755 404.021 352.842 403.846 352.842 403.614V403.571C352.842 403.121 352.7 402.773 352.416 402.527C352.137 402.281 351.739 402.158 351.223 402.158C350.679 402.158 350.245 402.278 349.923 402.52C349.601 402.757 349.388 403.055 349.284 403.415L346.486 403.188C346.628 402.525 346.907 401.952 347.324 401.469C347.741 400.981 348.278 400.607 348.936 400.347C349.599 400.081 350.366 399.949 351.237 399.949C351.843 399.949 352.423 400.02 352.977 400.162C353.536 400.304 354.031 400.524 354.462 400.822C354.897 401.121 355.241 401.504 355.491 401.973C355.742 402.437 355.868 402.993 355.868 403.642V411H352.999V409.487H352.913C352.738 409.828 352.504 410.129 352.21 410.389C351.917 410.645 351.564 410.846 351.152 410.993C350.74 411.135 350.264 411.206 349.724 411.206ZM350.591 409.118C351.036 409.118 351.429 409.03 351.77 408.855C352.111 408.675 352.378 408.434 352.572 408.131C352.767 407.828 352.864 407.484 352.864 407.101V405.943C352.769 406.005 352.639 406.062 352.473 406.114C352.312 406.161 352.13 406.206 351.926 406.249C351.723 406.286 351.519 406.322 351.315 406.355C351.112 406.384 350.927 406.41 350.761 406.433C350.406 406.485 350.096 406.568 349.831 406.682C349.566 406.795 349.36 406.949 349.213 407.143C349.066 407.333 348.993 407.57 348.993 407.854C348.993 408.266 349.142 408.58 349.44 408.798C349.743 409.011 350.127 409.118 350.591 409.118ZM357.576 411L357.562 408.599H357.924C358.18 408.599 358.4 408.538 358.585 408.415C358.774 408.287 358.93 408.081 359.053 407.797C359.176 407.513 359.273 407.136 359.344 406.668C359.415 406.194 359.463 405.612 359.487 404.92L359.664 400.091H367.96V411H365.076V402.47H362.384L362.214 405.801C362.171 406.715 362.06 407.501 361.88 408.159C361.705 408.817 361.461 409.357 361.148 409.778C360.836 410.195 360.46 410.503 360.019 410.702C359.579 410.901 359.067 411 358.485 411H357.576ZM372.201 403.443H375.461C376.905 403.443 378.032 403.789 378.842 404.48C379.652 405.167 380.056 406.085 380.056 407.236C380.056 407.984 379.874 408.642 379.51 409.21C379.145 409.774 378.619 410.214 377.933 410.531C377.246 410.844 376.422 411 375.461 411H370.305V400.091H373.196V408.621H375.461C375.968 408.621 376.385 408.493 376.711 408.237C377.038 407.982 377.204 407.655 377.208 407.257C377.204 406.836 377.038 406.492 376.711 406.227C376.385 405.957 375.968 405.822 375.461 405.822H372.201V403.443ZM391.132 396.085L392.056 398.06C391.748 398.315 391.407 398.505 391.033 398.628C390.659 398.746 390.212 398.824 389.691 398.862C389.175 398.9 388.545 398.926 387.801 398.94C386.959 398.95 386.272 399.085 385.742 399.345C385.212 399.606 384.809 400.015 384.534 400.574C384.26 401.128 384.08 401.852 383.995 402.747H384.101C384.428 402.08 384.887 401.563 385.479 401.199C386.076 400.834 386.812 400.652 387.688 400.652C388.616 400.652 389.428 400.856 390.124 401.263C390.825 401.67 391.369 402.255 391.757 403.017C392.146 403.779 392.34 404.693 392.34 405.759C392.34 406.866 392.122 407.83 391.686 408.649C391.256 409.464 390.642 410.096 389.847 410.545C389.051 410.991 388.105 411.213 387.006 411.213C385.903 411.213 384.951 410.981 384.151 410.517C383.355 410.053 382.74 409.369 382.304 408.464C381.873 407.56 381.658 406.447 381.658 405.126V404.232C381.658 401.604 382.169 399.655 383.192 398.386C384.215 397.117 385.718 396.473 387.702 396.455C388.242 396.445 388.73 396.443 389.165 396.447C389.601 396.452 389.982 396.431 390.309 396.384C390.64 396.336 390.915 396.237 391.132 396.085ZM387.02 408.869C387.484 408.869 387.882 408.749 388.213 408.507C388.55 408.266 388.808 407.92 388.988 407.47C389.172 407.02 389.265 406.483 389.265 405.858C389.265 405.238 389.172 404.712 388.988 404.281C388.808 403.846 388.55 403.514 388.213 403.287C387.877 403.06 387.475 402.946 387.006 402.946C386.656 402.946 386.341 403.01 386.061 403.138C385.782 403.266 385.543 403.455 385.344 403.706C385.15 403.952 384.998 404.258 384.89 404.622C384.785 404.982 384.733 405.394 384.733 405.858C384.733 406.791 384.935 407.527 385.337 408.067C385.744 408.602 386.305 408.869 387.02 408.869ZM399.277 411.213C398.174 411.213 397.22 410.979 396.415 410.51C395.615 410.036 394.997 409.378 394.561 408.536C394.125 407.688 393.908 406.705 393.908 405.588C393.908 404.461 394.125 403.476 394.561 402.634C394.997 401.786 395.615 401.128 396.415 400.659C397.22 400.186 398.174 399.949 399.277 399.949C400.38 399.949 401.332 400.186 402.132 400.659C402.937 401.128 403.557 401.786 403.993 402.634C404.429 403.476 404.646 404.461 404.646 405.588C404.646 406.705 404.429 407.688 403.993 408.536C403.557 409.378 402.937 410.036 402.132 410.51C401.332 410.979 400.38 411.213 399.277 411.213ZM399.291 408.869C399.793 408.869 400.212 408.727 400.548 408.443C400.884 408.154 401.138 407.761 401.308 407.264C401.483 406.767 401.571 406.201 401.571 405.567C401.571 404.932 401.483 404.366 401.308 403.869C401.138 403.372 400.884 402.979 400.548 402.69C400.212 402.402 399.793 402.257 399.291 402.257C398.785 402.257 398.358 402.402 398.013 402.69C397.672 402.979 397.414 403.372 397.239 403.869C397.068 404.366 396.983 404.932 396.983 405.567C396.983 406.201 397.068 406.767 397.239 407.264C397.414 407.761 397.672 408.154 398.013 408.443C398.358 408.727 398.785 408.869 399.291 408.869ZM413.062 407.655L416.017 400.091H418.318L414.064 411H412.054L407.899 400.091H410.193L413.062 407.655ZM409.504 400.091V411H406.614V400.091H409.504ZM416.77 411V400.091H419.625V411H416.77Z" fill="#969696"/>
</svg>
